<?xml version="1.0" encoding="UTF-8" standalone="no"?>
<!DOCTYPE svg PUBLIC "-//W3C//DTD SVG 1.1//EN" "http://www.w3.org/Graphics/SVG/1.1/DTD/svg11.dtd">
<svg width="100%" height="100%" viewBox="0 0 1080 1080" version="1.1" xmlns="http://www.w3.org/2000/svg" xmlns:xlink="http://www.w3.org/1999/xlink" xml:space="preserve" xmlns:serif="http://www.serif.com/" style="fill-rule:evenodd;clip-rule:evenodd;stroke-linecap:round;stroke-linejoin:round;stroke-miterlimit:1.5;">
    <g transform="matrix(1,0,0,1,0.0965074,84.8979)">
        <g transform="matrix(1.44128,0,0,1.59775,-238.622,-148.429)">
            <path d="M848.075,264.678L848.075,490.797C848.075,517.953 823.634,540 793.53,540L286.795,540C256.691,540 232.25,517.953 232.25,490.797L232.25,264.678C232.25,237.522 256.691,215.475 286.795,215.475L793.53,215.475C823.634,215.475 848.075,237.522 848.075,264.678Z"/>
        </g>
        <g>
            <g transform="matrix(-1,0,0,1,783.142,0)">
                <path d="M184.155,360.54L184.155,342.848L212.975,342.848" style="fill:none;stroke:white;stroke-width:16px;"/>
            </g>
            <g transform="matrix(-1.66806,0,0,1.06919,888.289,-24.5087)">
                <path d="M184.14,370.233L184.14,408.928C184.14,414.504 181.239,419.031 177.665,419.031L169.207,419.031C165.633,419.031 162.732,414.504 162.732,408.928L162.732,370.233C162.732,364.657 165.633,360.13 169.207,360.13L177.665,360.13C181.239,360.13 184.14,364.657 184.14,370.233Z" style="fill:white;"/>
            </g>
            <path d="M184.155,360.54L184.155,342.848L212.975,342.848" style="fill:none;stroke:white;stroke-width:16px;"/>
            <g transform="matrix(1.66806,0,0,1.06919,-105.147,-24.5087)">
                <path d="M184.14,370.233L184.14,408.928C184.14,414.504 181.239,419.031 177.665,419.031L169.207,419.031C165.633,419.031 162.732,414.504 162.732,408.928L162.732,370.233C162.732,364.657 165.633,360.13 169.207,360.13L177.665,360.13C181.239,360.13 184.14,364.657 184.14,370.233Z" style="fill:white;"/>
            </g>
        </g>
        <g transform="matrix(1,0,0,1,1.52866,0)">
            <g transform="matrix(1.00793,0,0,1.02976,-4.49465,-18.2379)">
                <path d="M566.955,314.797L566.955,577.658C566.955,597.125 550.808,612.93 530.919,612.93L251.949,612.93C232.06,612.93 215.913,597.125 215.913,577.658L215.913,314.797C215.913,295.33 232.06,279.525 251.949,279.525L530.919,279.525C550.808,279.525 566.955,295.33 566.955,314.797Z" style="fill:white;"/>
            </g>
            <g transform="matrix(1.02966,0,0,1,-16.0142,0)">
                <path d="M540,354.206L540,466.833L247.686,466.833L247.686,353.636C247.686,346.845 253.041,341.33 259.637,341.33L527.495,341.33C534.397,341.33 540,347.1 540,354.206Z" style="fill:rgb(9,0,0);"/>
            </g>
            <g transform="matrix(0.938136,0,0,0.887682,224.885,49.635)">
                <ellipse cx="175.479" cy="464.749" rx="160.416" ry="41.389" style="fill:rgb(9,0,0);"/>
            </g>
            <g transform="matrix(1,0,0,1,-7.18514,0)">
                <circle cx="274.416" cy="545.981" r="19.546" style="fill:rgb(9,0,0);"/>
            </g>
            <g transform="matrix(1,0,0,1,238.437,0)">
                <circle cx="274.416" cy="545.981" r="19.546" style="fill:rgb(9,0,0);"/>
            </g>
            <path d="M313.384,472.54C313.384,472.54 337.266,439.251 350.042,425.444C362.187,412.319 390.042,389.696 390.042,389.696" style="fill:white;fill-opacity:0;stroke:white;stroke-width:16px;"/>
            <g transform="matrix(0.998182,0,0,0.95748,3.88855,22.9606)">
                <path d="M442.811,546.266C442.811,549.725 440.118,552.533 436.8,552.533L338.622,552.533C335.304,552.533 332.611,549.725 332.611,546.266C332.611,542.808 335.304,540 338.622,540L436.8,540C440.118,540 442.811,542.808 442.811,546.266Z" style="fill:rgb(9,0,0);"/>
            </g>
            <g transform="matrix(0.725951,0,0,0.95748,108.583,48.4873)">
                <path d="M442.811,546.266C442.811,549.725 439.108,552.533 434.546,552.533L340.876,552.533C336.314,552.533 332.611,549.725 332.611,546.266C332.611,542.808 336.314,540 340.876,540L434.546,540C439.108,540 442.811,542.808 442.811,546.266Z" style="fill:rgb(9,0,0);"/>
            </g>
            <g transform="matrix(1.04677,0,0,1.48247,-17.6389,-149.658)">
                <path d="M451.034,304.908C451.034,310.889 444.157,315.744 435.687,315.744L343.245,315.744C334.775,315.744 327.899,310.889 327.899,304.908C327.899,298.927 334.775,294.072 343.245,294.072L435.687,294.072C444.157,294.072 451.034,298.927 451.034,304.908Z" style="fill:rgb(9,0,0);"/>
            </g>
        </g>
        <g transform="matrix(1,0,0,1,-1.74049,0)">
            <g transform="matrix(1,0,0,1,102.386,152.862)">
                <path d="M181.673,440.453L181.673,476.441C181.673,481.593 177.49,485.776 172.338,485.776L153.669,485.776C148.517,485.776 144.334,481.593 144.334,476.441L144.334,440.453C144.334,435.301 148.517,431.118 153.669,431.118L172.338,431.118C177.49,431.118 181.673,435.301 181.673,440.453Z" style="fill:white;stroke:white;stroke-width:16px;"/>
            </g>
            <g transform="matrix(1,0,0,1,358.231,152.862)">
                <path d="M181.673,440.453L181.673,476.441C181.673,481.593 177.49,485.776 172.338,485.776L153.669,485.776C148.517,485.776 144.334,481.593 144.334,476.441L144.334,440.453C144.334,435.301 148.517,431.118 153.669,431.118L172.338,431.118C177.49,431.118 181.673,435.301 181.673,440.453Z" style="fill:white;stroke:white;stroke-width:16px;"/>
            </g>
        </g>
        <g transform="matrix(1.1122,0,0,1.26154,-89.722,-196.717)">
            <path d="M683.878,539.453L683.878,491.501L780.927,491.501L780.927,446.974L864.666,515.477L780.927,583.98L780.927,539.453L683.878,539.453Z" style="fill:white;stroke:white;stroke-width:26.91px;"/>
        </g>
    </g>
</svg>
